<svg width="72" height="72" viewBox="0 0 72 72" fill="none" xmlns="http://www.w3.org/2000/svg">
<path d="M58.0947 38.4141C59.5374 38.4142 60.7069 39.5837 60.707 41.0264C60.707 42.4691 59.5226 43.627 58.084 43.7363C41.5821 44.9888 39.9668 58.0243 48.543 60.0859C49.8617 60.403 50.9854 61.4601 50.9854 62.8164C50.9852 64.1726 49.8856 65.2725 48.5293 65.2725H45.4131C43.7563 65.2725 42.3076 63.7271 40.9229 62.8174C38.4281 61.1785 33.4351 61.1785 30.9404 62.8174C29.5557 63.7271 28.107 65.2725 26.4502 65.2725H24.0498C22.6445 65.2725 21.5049 64.1328 21.5049 62.7275C21.5049 61.3934 22.56 60.3325 23.8262 59.9121C29.2392 58.1144 29.9385 51.7316 26.2969 49.252C25.0731 48.4186 23.9094 47.2491 23.9092 45.7686V41.4141C23.9092 39.7572 25.2523 38.4141 26.9092 38.4141H58.0947Z" fill="#FF3D00"/>
<path d="M19.0672 39.2471H14.001C12.3441 39.2471 10.9398 40.6829 11.7959 42.1014C13.1637 44.3676 16.0772 45.762 18.7892 46.5154C20.5092 46.9932 22.0672 45.5948 22.0672 43.8096V42.2471C22.0672 40.5902 20.7241 39.2471 19.0672 39.2471Z" fill="#FF3D00"/>
<path d="M32.1484 33.4162L36.5083 34.8771C37.758 35.2958 39.1105 34.6222 39.5292 33.3725L40.1658 31.4727C40.2618 31.1864 40.3025 30.8844 40.2858 30.5829L40.2027 29.0779C40.4119 28.994 40.6164 28.8985 40.8151 28.7922L40.8152 28.7921L40.8266 28.786C42.1474 28.0751 43.2111 26.8796 43.7253 25.3452C44.7981 22.1434 46.8751 17.3078 44.3903 12.5815C44.0795 11.9902 41.0494 7.55958 40.5009 7.94084C39.384 8.7172 40.6004 12.9678 40.6004 12.9678C40.6004 12.9678 41.4292 17.6497 38.6209 17.3267C35.8125 17.0036 33.0649 18.6724 32.1308 21.4601C31.5209 23.2803 31.8155 25.1856 32.7715 26.6881L31.8095 27.6702C31.5569 27.928 31.3661 28.2398 31.2514 28.582L30.6439 30.3952C30.2251 31.6449 30.8987 32.9974 32.1484 33.4162Z" fill="#FF3D00"/>
<path d="M7.58403 16.139C6.53669 15.788 5.97215 14.6545 6.32309 13.6072L6.90237 11.8784C7.25331 10.831 8.38683 10.2665 9.43417 10.6174L31.9619 18.166C31.303 18.8837 30.7792 19.7471 30.4496 20.7305C30.1202 21.7137 30.0183 22.718 30.1118 23.6875L7.58403 16.139Z" fill="#FF3D00"/>
<path d="M62.6854 12.333L43.5651 33.3698C42.9813 34.0122 43.4371 35.0424 44.3051 35.0424H67.7712L56.7841 32.8929C55.888 32.7176 55.6763 31.5316 56.4565 31.0571L69.128 23.3505L53.3265 29.8108C52.4158 30.1831 51.5714 29.1548 52.1137 28.3339L62.6854 12.333Z" fill="#FF3D00"/>
<path d="M3.40016 23.1973L27.3235 33.1189C28.334 33.538 28.0344 35.0426 26.9404 35.0426L2.70013 35.0428L15.4462 33.5435C16.3646 33.4355 16.6569 32.2457 15.8931 31.7244L3.40016 23.1973Z" fill="#FF3D00"/>
</svg>
