<svg width="24" height="24" viewBox="0 0 24 24" fill="none" xmlns="http://www.w3.org/2000/svg">
<path d="M10.5397 19.5083C10.6811 19.274 10.7688 19.0112 10.7966 18.739C10.9959 17.1987 9.52235 16.7689 8.64676 16.5171L8.6333 16.5132C8.28157 16.4112 7.91985 16.3063 7.71688 16.1754C7.60565 16.1033 7.60743 16.0864 7.61811 16.0063C7.61945 15.9416 7.63631 15.8782 7.66728 15.8213C7.69825 15.7645 7.74242 15.7159 7.79608 15.6797C8.2054 15.4021 9.16108 15.5258 9.56062 15.6299C9.74328 15.6779 9.93754 15.6514 10.1007 15.5562C10.2638 15.461 10.3824 15.3049 10.4304 15.1223C10.4785 14.9396 10.452 14.7453 10.3567 14.5822C10.2615 14.4191 10.1054 14.3005 9.92278 14.2524C9.73414 14.2035 8.05502 13.7862 7.00146 14.498C6.77858 14.6475 6.5913 14.8441 6.4529 15.074C6.3145 15.3039 6.22837 15.5614 6.20061 15.8283C6.02264 17.2414 7.41523 17.6445 8.24722 17.8847C9.32125 18.1953 9.41468 18.3225 9.38443 18.5601C9.35685 18.7746 9.27231 18.8573 9.19401 18.9098C8.78913 19.1821 7.84413 19.0486 7.45438 18.9419C7.27255 18.891 7.07795 18.9145 6.91341 19.0071C6.74888 19.0997 6.62787 19.2539 6.57701 19.4357C6.52615 19.6176 6.54961 19.8121 6.64223 19.9767C6.73484 20.1412 6.88903 20.2622 7.07087 20.3131C7.51221 20.4287 7.9663 20.4885 8.42252 20.4911C8.94485 20.4911 9.51701 20.4021 9.97884 20.0942C10.2068 19.9427 10.3983 19.7426 10.5397 19.5083Z" fill="black"/>
<path d="M5.23592 18.1775V14.7961C5.23592 14.6073 5.16092 14.4263 5.02742 14.2928C4.89392 14.1593 4.71286 14.0843 4.52406 14.0843C4.33526 14.0843 4.15419 14.1593 4.02069 14.2928C3.88719 14.4263 3.81219 14.6073 3.81219 14.7961V18.1775C3.81219 18.4135 3.71844 18.6398 3.55157 18.8067C3.38469 18.9736 3.15836 19.0673 2.92236 19.0673C2.68636 19.0673 2.46003 18.9736 2.29315 18.8067C2.12628 18.6398 2.03253 18.4135 2.03253 18.1775C2.03253 17.9887 1.95753 17.8076 1.82403 17.6741C1.69053 17.5406 1.50946 17.4656 1.32066 17.4656C1.13186 17.4656 0.950797 17.5406 0.817296 17.6741C0.683795 17.8076 0.608795 17.9887 0.608795 18.1775C0.608795 18.7911 0.852545 19.3796 1.28642 19.8134C1.7203 20.2473 2.30876 20.4911 2.92236 20.4911C3.53595 20.4911 4.12442 20.2473 4.5583 19.8134C4.99217 19.3796 5.23592 18.7911 5.23592 18.1775Z" fill="black"/>
<path d="M20.0306 8.46938L14.7806 3.21938C14.7109 3.14975 14.6282 3.09454 14.5371 3.0569C14.4461 3.01926 14.3485 2.99992 14.25 3H5.25C4.85218 3 4.47064 3.15804 4.18934 3.43934C3.90804 3.72064 3.75 4.10218 3.75 4.5V11.25C3.75 11.4489 3.82902 11.6397 3.96967 11.7803C4.11032 11.921 4.30109 12 4.5 12C4.69891 12 4.88968 11.921 5.03033 11.7803C5.17098 11.6397 5.25 11.4489 5.25 11.25V4.5H13.5V9C13.5 9.19891 13.579 9.38968 13.7197 9.53033C13.8603 9.67098 14.0511 9.75 14.25 9.75H18.75V11.25C18.75 11.4489 18.829 11.6397 18.9697 11.7803C19.1103 11.921 19.3011 12 19.5 12C19.6989 12 19.8897 11.921 20.0303 11.7803C20.171 11.6397 20.25 11.4489 20.25 11.25V9C20.2501 8.90148 20.2307 8.80391 20.1931 8.71286C20.1555 8.62182 20.1003 8.53908 20.0306 8.46938ZM15 8.25V5.56031L17.6897 8.25H15Z" fill="black"/>
<path fill-rule="evenodd" clip-rule="evenodd" d="M14.6115 14.0843C13.041 14.0843 11.7641 15.5213 11.7641 17.2877C11.7641 19.054 13.041 20.4911 14.6115 20.4911C16.1821 20.4911 17.459 19.054 17.459 17.2877C17.459 15.5213 16.1821 14.0843 14.6115 14.0843ZM13.1878 17.2877C13.1878 18.2665 13.8267 19.0673 14.6115 19.0673C15.3964 19.0673 16.0353 18.2665 16.0353 17.2877C16.0353 16.3088 15.3964 15.508 14.6115 15.508C13.8267 15.508 13.1878 16.3088 13.1878 17.2877Z" fill="black"/>
<path d="M23.3912 19.8358V14.8527C23.3912 14.6639 23.3162 14.4828 23.1827 14.3493C23.0492 14.2158 22.8681 14.1408 22.6793 14.1408C22.4905 14.1408 22.3095 14.2158 22.176 14.3493C22.0425 14.4828 21.9675 14.6639 21.9675 14.8527V17.6112L19.6993 14.4389C19.6116 14.3162 19.4872 14.2245 19.3441 14.177C19.2009 14.1295 19.0464 14.1287 18.9028 14.1748C18.7591 14.2208 18.6338 14.3113 18.5449 14.4331C18.456 14.555 18.4081 14.7019 18.4081 14.8527V19.8358C18.4081 20.0246 18.4831 20.2056 18.6166 20.3391C18.7501 20.4726 18.9312 20.5476 19.12 20.5476C19.3088 20.5476 19.4899 20.4726 19.6234 20.3391C19.7569 20.2056 19.8319 20.0246 19.8319 19.8358V17.0773L22.1001 20.2495C22.1659 20.3417 22.2528 20.4169 22.3536 20.4687C22.4544 20.5206 22.566 20.5476 22.6793 20.5476C22.753 20.5478 22.8263 20.5364 22.8965 20.5138C23.0401 20.4678 23.1655 20.3773 23.2544 20.2555C23.3433 20.1336 23.3912 19.9866 23.3912 19.8358Z" fill="black"/>
</svg>
