<svg width="72" height="72" viewBox="0 0 72 72" fill="none" xmlns="http://www.w3.org/2000/svg">
<rect x="12.9531" y="44.5791" width="16.5361" height="16.5361" rx="3" fill="#FF3D00"/>
<circle cx="49.3623" cy="23.8398" r="9.26074" fill="#FF3D00"/>
<path fill-rule="evenodd" clip-rule="evenodd" d="M21.2201 32.2267C25.9457 32.2267 29.5602 28.7077 29.5602 24.2318C29.5602 21.5837 28.3885 20.3015 26.3234 18.1106C24.6249 16.3083 22.518 14.0454 21.6391 10.2776C21.1584 10.6852 20.6888 11.1921 20.3113 11.7863C19.4988 13.0653 19.1226 14.6967 20.1206 16.8222C20.9106 18.5047 21.2377 20.8792 19.6566 22.563C18.7148 23.566 17.1037 24.2717 15.3553 23.4918C14.57 23.1413 13.92 22.5569 13.379 21.8251C13.0767 22.4995 12.8823 23.3228 12.8823 24.2319C12.8822 28.7262 16.4918 32.2267 21.2201 32.2267ZM23.75 7.35376C23.723 6.864 23.3491 6.46966 22.9036 6.59465C20.0525 7.39461 14.9885 11.8505 17.8824 18.014C18.4567 19.2372 18.357 20.1783 17.8871 20.6786C17.1173 21.4984 15.6372 21.5617 14.4273 18.4114C14.2494 17.9483 13.7602 17.6882 13.3567 17.9443C11.5189 19.1105 10.3799 21.63 10.3799 24.2318C10.3797 30.4714 15.3812 34.8916 21.2201 34.8916C27.0591 34.8916 32.0626 30.45 32.0626 24.2318C32.0626 20.4349 30.1821 18.4412 28.2074 16.3476C26.1543 14.1708 23.9992 11.886 23.75 7.35376Z" fill="#FF3D00"/>
<path d="M21.2201 32.2267C25.9457 32.2267 29.5602 28.7077 29.5602 24.2318C29.5602 21.5837 28.3885 20.3015 26.3234 18.1106C24.6249 16.3083 22.518 14.0454 21.6391 10.2776C21.1584 10.6852 20.6888 11.1921 20.3113 11.7863C19.4988 13.0653 19.1226 14.6967 20.1206 16.8222C20.9106 18.5047 21.2377 20.8792 19.6566 22.563C18.7148 23.566 17.1037 24.2717 15.3553 23.4918C14.57 23.1413 13.92 22.5569 13.379 21.8251C13.0767 22.4995 12.8823 23.3228 12.8823 24.2319C12.8822 28.7262 16.4918 32.2267 21.2201 32.2267Z" fill="#FF3D00"/>
<path d="M54.5146 40.625C55.2208 40.6251 55.8742 40.9981 56.2344 41.6055L61.3408 50.2217C61.7133 50.8503 61.7134 51.6321 61.3408 52.2607L56.2344 60.876C55.8743 61.4836 55.2209 61.8563 54.5146 61.8564H44.2109C43.5046 61.8564 42.8503 61.4836 42.4902 60.876L37.3848 52.2607C37.0122 51.6321 37.0123 50.8504 37.3848 50.2217L42.4902 41.6055C42.8504 40.9979 43.5046 40.6251 44.2109 40.625H54.5146ZM49.3623 46.2412C46.6009 46.2413 44.3623 48.4798 44.3623 51.2412C44.3623 54.0026 46.6009 56.2411 49.3623 56.2412C52.1237 56.2412 54.3623 54.0026 54.3623 51.2412C54.3623 48.4798 52.1237 46.2412 49.3623 46.2412Z" fill="#FF3D00"/>
</svg>
