<svg width="72" height="72" viewBox="0 0 72 72" fill="none" xmlns="http://www.w3.org/2000/svg">
<path d="M59.5181 61.5668L59.0038 64.0134C59.875 64.1965 60.7778 63.9025 61.3741 63.2416C61.9705 62.5807 62.1704 61.6526 61.8991 60.8048L59.5181 61.5668ZM54.1027 60.4286L54.6169 57.982L53.2261 57.6897L52.2635 58.7352L54.1027 60.4286ZM50.3544 64.4996L47.9734 65.2616C48.2448 66.1094 48.9464 66.749 49.8157 66.9408C50.685 67.1327 51.5907 66.8478 52.1936 66.1929L50.3544 64.4996ZM59.5181 61.5668L60.0323 59.1203L54.6169 57.982L54.1027 60.4286L53.5885 62.8751L59.0038 64.0134L59.5181 61.5668ZM59.5181 61.5668L61.8991 60.8048L59.4792 53.2437L57.0982 54.0057L54.7172 54.7678L57.137 62.3289L59.5181 61.5668ZM50.3544 64.4996L52.1936 66.1929L55.9419 62.1219L54.1027 60.4286L52.2635 58.7352L48.5153 62.8062L50.3544 64.4996ZM50.3544 64.4996L52.7355 63.7375L50.3156 56.1764L47.9346 56.9385L45.5535 57.7005L47.9734 65.2616L50.3544 64.4996Z" fill="#FF3D00"/>
<path d="M24.29 22.3291H46.5166" stroke="#FF3D00" stroke-width="5" stroke-linecap="round"/>
<path d="M24.29 35.8105H39.5605" stroke="#FF3D00" stroke-width="5" stroke-linecap="round"/>
<path d="M24.29 49.292H34.1761" stroke="#FF3D00" stroke-width="5" stroke-linecap="round"/>
<path d="M46.9432 38.0608C52.7953 36.1879 59.058 39.4139 60.9311 45.266C62.8039 51.1182 59.578 57.3808 53.7259 59.2538C47.8738 61.1265 41.611 57.9007 39.738 52.0487C37.8653 46.1966 41.0913 39.9339 46.9432 38.0608ZM48.4673 42.8229C45.2454 43.8543 43.4691 47.3026 44.5001 50.5246C45.5313 53.7466 48.9797 55.5227 52.2018 54.4918C55.424 53.4605 57.2002 50.0122 56.169 46.7901C55.1376 43.568 51.6894 41.7917 48.4673 42.8229Z" fill="#FF3D00"/>
<path d="M51.7119 7.50098C55.3018 7.50098 58.2119 10.4111 58.2119 14.001V38.4404C56.752 37.251 55.0454 36.3848 53.2119 35.917V14.001C53.2119 13.1726 52.5403 12.501 51.7119 12.501H19.0947C18.2663 12.501 17.5947 13.1725 17.5947 14.001V56.915C17.5947 57.7435 18.2663 58.415 19.0947 58.415H41.6982C42.5626 59.1372 43.516 59.7455 44.5342 60.2217L45.3896 63.415H19.0947C15.5049 63.415 12.5947 60.5049 12.5947 56.915V14.001C12.5947 10.4111 15.5049 7.50098 19.0947 7.50098H51.7119ZM53.2119 41.1885C53.2924 41.2238 53.372 41.2609 53.4512 41.2988H53.2119V41.1885Z" fill="#FF3D00"/>
</svg>
