<svg width="110" height="110" viewBox="0 0 110 110" fill="none" xmlns="http://www.w3.org/2000/svg">
<path d="M98.7832 50.4375C100.44 50.4375 101.783 51.7807 101.783 53.4375V57.4961C101.783 59.1529 100.425 60.4881 98.7695 60.5605C64.0318 62.0791 61.3237 89.8133 80.0684 92.4795C81.7084 92.713 83.074 94.028 83.0742 95.6846V99.1406C83.0741 100.797 81.731 102.141 80.0742 102.141H69.5781C67.9213 102.141 66.6362 100.687 65.707 99.3154C61.8532 93.6264 46.3569 93.6265 42.5029 99.3154C41.5738 100.687 40.2886 102.141 38.6318 102.141H29.3418C27.685 102.141 26.342 100.797 26.3418 99.1406V95.4756C26.342 93.9029 27.5704 92.6267 29.1064 92.2891C42.0903 89.4363 43.1837 73.9514 33.457 70.2031C32.0754 69.6707 30.9688 68.4562 30.9688 66.9756V53.4375C30.9688 51.7807 32.3119 50.4375 33.9688 50.4375H35.542C35.5417 50.4805 35.54 50.5234 35.54 50.5664C35.54 55.5872 37.5347 60.4029 41.085 63.9531C44.6352 67.5033 49.4509 69.498 54.4717 69.498C59.4923 69.4979 64.3073 67.5032 67.8574 63.9531C71.4077 60.4029 73.4023 55.5872 73.4023 50.5664C73.4023 50.5234 73.4006 50.4804 73.4004 50.4375H98.7832Z" fill="#FF3D00"/>
<path d="M24.5997 52.3555H11.2168C9.55994 52.3555 8.165 53.7333 8.6731 55.3103C10.5991 61.2881 18.2433 64.4223 24.3013 65.6775C26.0493 66.0397 27.5997 64.645 27.5997 62.8598V55.3555C27.5997 53.6986 26.2565 52.3555 24.5997 52.3555Z" fill="#FF3D00"/>
<path d="M82.0685 20.8014C82.8069 19.3323 84.904 19.3323 85.6424 20.8014L88.197 25.8839C88.3924 26.2727 88.7094 26.5872 89.0997 26.7796L94.1862 29.2871C95.6738 30.0204 95.6738 32.1415 94.1862 32.8748L89.0997 35.3823C88.7094 35.5747 88.3924 35.8892 88.197 36.278L85.6424 41.3605C84.904 42.8296 82.8069 42.8296 82.0685 41.3605L79.5139 36.278C79.3185 35.8892 79.0016 35.5747 78.6113 35.3823L73.5247 32.8748C72.0371 32.1415 72.0371 30.0204 73.5247 29.2871L78.6113 26.7796C79.0016 26.5872 79.3185 26.2727 79.5139 25.8839L82.0685 20.8014Z" fill="#FF3D00"/>
<path d="M52.6842 6.79457C53.4226 5.32547 55.5198 5.32547 56.2582 6.79457L57.32 8.90708C57.5154 9.2959 57.8323 9.61037 58.2226 9.80278L60.3103 10.8319C61.7978 11.5652 61.7978 13.6863 60.3103 14.4197L58.2226 15.4488C57.8323 15.6412 57.5154 15.9557 57.32 16.3445L56.2582 18.457C55.5198 19.9261 53.4226 19.9261 52.6842 18.457L51.6224 16.3445C51.427 15.9557 51.1101 15.6412 50.7198 15.4488L48.6321 14.4197C47.1445 13.6863 47.1445 11.5652 48.6321 10.8319L50.7198 9.80278C51.1101 9.61037 51.427 9.2959 51.6224 8.90708L52.6842 6.79457Z" fill="#FF3D00"/>
<path fill-rule="evenodd" clip-rule="evenodd" d="M54.262 61.0712C60.9032 61.0712 65.983 56.1257 65.983 49.8354C65.983 46.1138 64.3363 44.3118 61.4341 41.2327C59.047 38.6999 56.086 35.5195 54.8509 30.2245C54.1752 30.7972 53.5153 31.5096 52.9847 32.3447C51.8429 34.1422 51.3142 36.4349 52.7168 39.422C53.827 41.7866 54.2867 45.1237 52.0647 47.4901C50.7411 48.8996 48.4769 49.8915 46.0197 48.7953C44.916 48.3028 44.0026 47.4814 43.2422 46.453C42.8174 47.4008 42.5442 48.5579 42.5442 49.8356C42.5441 56.1518 47.6169 61.0712 54.262 61.0712ZM57.8175 26.1153C57.7795 25.427 57.254 24.8728 56.6279 25.0485C52.6211 26.1727 45.5042 32.435 49.5712 41.097C50.3784 42.8161 50.2382 44.1387 49.5779 44.8418C48.4961 45.9939 46.4159 46.0828 44.7155 41.6555C44.4655 41.0047 43.778 40.6392 43.2109 40.999C40.6282 42.6381 39.0274 46.1788 39.0273 49.8354C39.0271 58.6044 46.0561 64.8164 54.262 64.8164C62.468 64.8164 69.4998 58.5742 69.4998 49.8354C69.4998 44.4993 66.857 41.6974 64.0819 38.7551C61.1964 35.6959 58.1677 32.4848 57.8175 26.1153Z" fill="#FF3D00"/>
<path d="M54.262 61.0712C60.9032 61.0712 65.983 56.1257 65.983 49.8354C65.983 46.1138 64.3363 44.3118 61.4341 41.2327C59.047 38.6999 56.086 35.5195 54.8509 30.2245C54.1752 30.7972 53.5153 31.5096 52.9847 32.3447C51.8429 34.1422 51.3142 36.4349 52.7168 39.422C53.827 41.7866 54.2867 45.1237 52.0647 47.4901C50.7411 48.8996 48.4769 49.8915 46.0197 48.7953C44.916 48.3028 44.0026 47.4814 43.2422 46.453C42.8174 47.4008 42.5442 48.5579 42.5442 49.8356C42.5441 56.1518 47.6169 61.0712 54.262 61.0712Z" fill="#FF3D00"/>
<path d="M25.8131 27.9498C26.5515 26.4807 28.6487 26.4807 29.3871 27.9498L30.9685 31.0961C31.1639 31.485 31.4808 31.7994 31.8711 31.9918L35.0026 33.5356C36.4902 34.2689 36.4902 36.39 35.0026 37.1233L31.8711 38.667C31.4808 38.8594 31.1639 39.1739 30.9685 39.5627L29.3871 42.709C28.6487 44.1781 26.5515 44.1781 25.8131 42.709L24.2317 39.5627C24.0363 39.1739 23.7194 38.8594 23.3291 38.667L20.1976 37.1233C18.71 36.39 18.71 34.2689 20.1976 33.5356L23.3291 31.9918C23.7194 31.7994 24.0363 31.485 24.2317 31.0961L25.8131 27.9498Z" fill="#FF3D00"/>
</svg>
