<svg width="72" height="72" viewBox="0 0 72 72" fill="none" xmlns="http://www.w3.org/2000/svg">
<path d="M67.1312 36.315C68.2089 35.4519 68.3828 33.8786 67.5197 32.8009C66.6565 31.7232 65.0832 31.5493 64.0055 32.4124L67.1312 36.315ZM65.5684 34.3637L64.0055 32.4124C60.8388 34.9487 59.1943 37.5498 58.6165 40.2197C58.0541 42.819 58.5906 45.1386 59.0409 46.8354C59.2852 47.7563 59.4737 48.3843 59.5984 49.0112C59.7177 49.611 59.7128 49.9275 59.6799 50.1002C59.6612 50.1982 59.632 50.2982 59.4486 50.4659C59.2141 50.6802 58.7071 51.0137 57.6627 51.3707L58.4712 53.7363L59.2798 56.102C62.1275 55.1287 64.108 53.5754 64.5916 51.0355C64.7995 49.9438 64.6734 48.8955 64.5023 48.0356C64.3366 47.2027 64.0655 46.2761 63.8736 45.553C63.4514 43.9618 63.2093 42.6362 63.5034 41.2772C63.7822 39.9888 64.6295 38.3186 67.1312 36.315L65.5684 34.3637Z" fill="#FF3D00"/>
<path d="M67.1312 32.4155C68.2089 33.2786 68.3828 34.8519 67.5197 35.9296C66.6565 37.0073 65.0832 37.1812 64.0055 36.3181L67.1312 32.4155ZM65.5684 34.3668L64.0055 36.3181C60.8388 33.7818 59.1943 31.1807 58.6165 28.5108C58.0541 25.9115 58.5906 23.5918 59.0409 21.8951C59.2852 20.9742 59.4737 20.3462 59.5984 19.7193C59.7177 19.1195 59.7128 18.8029 59.6799 18.6302C59.6612 18.5323 59.632 18.4322 59.4486 18.2646C59.2141 18.0502 58.7071 17.7167 57.6627 17.3598L58.4712 14.9941L59.2798 12.6285C62.1275 13.6018 64.108 15.1551 64.5916 17.695C64.7995 18.7867 64.6734 19.835 64.5023 20.6949C64.3366 21.5278 64.0655 22.4544 63.8736 23.1774C63.4514 24.7686 63.2093 26.0943 63.5034 27.4533C63.7822 28.7417 64.6295 30.4118 67.1312 32.4155L65.5684 34.3668Z" fill="#FF3D00"/>
<path d="M4.86882 36.3121C3.79114 35.449 3.61721 33.8756 4.48034 32.798C5.34346 31.7203 6.91679 31.5464 7.99446 32.4095L4.86882 36.3121ZM6.43164 34.3608L7.99446 32.4095C11.1612 34.9458 12.8057 37.5469 13.3835 40.2168C13.9459 42.8161 13.4094 45.1357 12.9591 46.8324C12.7148 47.7534 12.5263 48.3813 12.4016 49.0082C12.2823 49.6081 12.2872 49.9246 12.3201 50.0973C12.3388 50.1953 12.368 50.2953 12.5514 50.463C12.7859 50.6773 13.2929 51.0108 14.3373 51.3678L13.5288 53.7334L12.7202 56.099C9.87248 55.1257 7.89199 53.5725 7.40836 51.0326C7.20048 49.9408 7.32662 48.8925 7.49769 48.0326C7.66338 47.1998 7.93453 46.2731 8.12638 45.5501C8.54859 43.9589 8.79065 42.6333 8.49657 41.2743C8.21777 39.9859 7.37049 38.3157 4.86882 36.3121L6.43164 34.3608Z" fill="#FF3D00"/>
<path d="M4.86882 32.4135C3.79114 33.2766 3.61721 34.85 4.48034 35.9276C5.34346 37.0053 6.91679 37.1792 7.99446 36.3161L4.86882 32.4135ZM6.43164 34.3648L7.99446 36.3161C11.1612 33.7798 12.8057 31.1787 13.3835 28.5088C13.9459 25.9095 13.4094 23.5899 12.9591 21.8932C12.7148 20.9722 12.5263 20.3442 12.4016 19.7174C12.2823 19.1175 12.2872 18.801 12.3201 18.6283C12.3388 18.5303 12.368 18.4303 12.5514 18.2626C12.7859 18.0483 13.2929 17.7148 14.3373 17.3578L13.5288 14.9922L12.7202 12.6265C9.87248 13.5999 7.89199 15.1531 7.40836 17.693C7.20048 18.7848 7.32662 19.8331 7.49769 20.693C7.66338 21.5258 7.93453 22.4524 8.12638 23.1755C8.54859 24.7667 8.79065 26.0923 8.49657 27.4513C8.21777 28.7397 7.37049 30.4099 4.86882 32.4135L6.43164 34.3648Z" fill="#FF3D00"/>
<path d="M21.9073 39.5081C22.2765 38.7736 23.3251 38.7736 23.6943 39.5081L24.4781 41.0676C24.5758 41.262 24.7342 41.4192 24.9294 41.5154L26.4813 42.2804C27.2251 42.6471 27.2251 43.7076 26.4813 44.0743L24.9294 44.8393C24.7342 44.9355 24.5758 45.0928 24.4781 45.2872L23.6943 46.8466C23.3251 47.5812 22.2765 47.5812 21.9073 46.8466L21.1235 45.2872C21.0258 45.0928 20.8673 44.9355 20.6722 44.8393L19.1203 44.0743C18.3765 43.7076 18.3765 42.6471 19.1203 42.2804L20.6722 41.5154C20.8673 41.4192 21.0258 41.262 21.1235 41.0676L21.9073 39.5081Z" fill="#FF3D00"/>
<path d="M35.1064 44.9554C35.4756 44.2208 36.5242 44.2208 36.8934 44.9554L38.1699 47.495C38.2676 47.6894 38.426 47.8466 38.6212 47.9428L41.1628 49.1957C41.9066 49.5624 41.9066 50.6229 41.1628 50.9896L38.6212 52.2425C38.426 52.3387 38.2676 52.496 38.1699 52.6904L36.8934 55.2299C36.5242 55.9645 35.4756 55.9645 35.1064 55.2299L33.83 52.6904C33.7323 52.496 33.5738 52.3387 33.3787 52.2425L30.8371 50.9896C30.0933 50.6229 30.0933 49.5624 30.8371 49.1957L33.3787 47.9428C33.5738 47.8466 33.7323 47.6894 33.83 47.495L35.1064 44.9554Z" fill="#FF3D00"/>
<path d="M48.3057 39.5081C48.6749 38.7736 49.7235 38.7736 50.0927 39.5081L50.8765 41.0676C50.9742 41.262 51.1327 41.4192 51.3278 41.5154L52.8797 42.2804C53.6235 42.6471 53.6235 43.7076 52.8797 44.0743L51.3278 44.8393C51.1327 44.9355 50.9742 45.0928 50.8765 45.2872L50.0927 46.8466C49.7235 47.5812 48.6749 47.5812 48.3057 46.8466L47.5219 45.2872C47.4242 45.0928 47.2658 44.9355 47.0706 44.8393L45.5187 44.0743C44.7749 43.7076 44.7749 42.6471 45.5187 42.2804L47.0706 41.5154C47.2658 41.4192 47.4242 41.262 47.5219 41.0676L48.3057 39.5081Z" fill="#FF3D00"/>
<path fill-rule="evenodd" clip-rule="evenodd" d="M35.8995 36.9557C39.8777 36.9557 42.9206 33.9932 42.9206 30.2252C42.9206 27.9958 41.9342 26.9164 40.1957 25.0719C38.7658 23.5547 36.992 21.6496 36.2522 18.4777C35.8474 18.8208 35.4521 19.2475 35.1343 19.7477C34.4503 20.8245 34.1336 22.1979 34.9738 23.9873C35.6389 25.4037 35.9142 27.4028 34.5832 28.8203C33.7903 29.6646 32.434 30.2588 30.9621 29.6021C30.3009 29.3071 29.7538 28.8151 29.2983 28.199C29.0438 28.7668 28.8801 29.4599 28.8801 30.2253C28.88 34.0089 31.9188 36.9557 35.8995 36.9557ZM38.0293 16.0162C38.0065 15.6038 37.6917 15.2719 37.3167 15.3771C34.9165 16.0505 30.6533 19.8018 33.0895 24.9906C33.573 26.0204 33.4891 26.8127 33.0935 27.2339C32.4455 27.924 31.1994 27.9773 30.1808 25.3252C30.0311 24.9353 29.6192 24.7164 29.2795 24.9319C27.7324 25.9138 26.7735 28.0348 26.7734 30.2252C26.7733 35.478 30.9838 39.1992 35.8995 39.1992C40.8151 39.1992 45.0273 35.46 45.0273 30.2252C45.0273 27.0287 43.4442 25.3503 41.7818 23.5878C40.0534 21.7552 38.239 19.8317 38.0293 16.0162Z" fill="#FF3D00"/>
<path d="M35.8995 36.9557C39.8777 36.9557 42.9206 33.9932 42.9206 30.2252C42.9206 27.9958 41.9342 26.9164 40.1957 25.0719C38.7658 23.5547 36.992 21.6496 36.2522 18.4777C35.8474 18.8208 35.4521 19.2475 35.1343 19.7477C34.4503 20.8245 34.1336 22.1979 34.9738 23.9873C35.6389 25.4037 35.9142 27.4028 34.5832 28.8203C33.7903 29.6646 32.434 30.2588 30.9621 29.6021C30.3009 29.3071 29.7538 28.8151 29.2983 28.199C29.0438 28.7668 28.8801 29.4599 28.8801 30.2253C28.88 34.0089 31.9188 36.9557 35.8995 36.9557Z" fill="#FF3D00"/>
</svg>
