<svg width="72" height="72" viewBox="0 0 72 72" fill="none" xmlns="http://www.w3.org/2000/svg">
<path fill-rule="evenodd" clip-rule="evenodd" d="M57.5512 21.8816C60.8575 21.8816 63.3864 19.4195 63.3864 16.2879C63.3864 14.4352 62.5666 13.5381 61.1218 12.0052C59.9334 10.7442 58.4593 9.16092 57.8444 6.52482C57.508 6.80996 57.1795 7.16462 56.9153 7.58034C56.3469 8.47523 56.0837 9.61661 56.782 11.1037C57.3347 12.2809 57.5635 13.9423 56.4573 15.1204C55.7984 15.8221 54.6712 16.3159 53.4479 15.7701C52.8984 15.525 52.4437 15.116 52.0651 14.6041C51.8536 15.0759 51.7176 15.652 51.7176 16.288C51.7176 19.4325 54.243 21.8816 57.5512 21.8816ZM59.3213 4.4791C59.3024 4.13644 59.0408 3.86053 58.7291 3.94799C56.7343 4.50768 53.1912 7.6253 55.216 11.9376C55.6178 12.7935 55.548 13.4519 55.2193 13.8019C54.6807 14.3755 53.6451 14.4197 52.7986 12.2156C52.6742 11.8917 52.3319 11.7097 52.0495 11.8888C50.7637 12.7048 49.9668 14.4675 49.9668 16.2879C49.9667 20.6535 53.466 23.7461 57.5512 23.7461C61.6365 23.7461 65.1372 20.6385 65.1372 16.2879C65.1372 13.6314 63.8215 12.2365 62.44 10.7717C61.0035 9.24869 59.4956 7.6501 59.3213 4.4791Z" fill="#FF3D00"/>
<path d="M57.5512 21.8816C60.8575 21.8816 63.3864 19.4195 63.3864 16.2879C63.3864 14.4352 62.5666 13.5381 61.1218 12.0052C59.9334 10.7442 58.4593 9.16092 57.8444 6.52482C57.508 6.80996 57.1795 7.16462 56.9153 7.58034C56.3469 8.47523 56.0837 9.61661 56.782 11.1037C57.3347 12.2809 57.5635 13.9423 56.4573 15.1204C55.7984 15.8221 54.6712 16.3159 53.4479 15.7701C52.8984 15.525 52.4437 15.116 52.0651 14.6041C51.8536 15.0759 51.7176 15.652 51.7176 16.288C51.7176 19.4325 54.243 21.8816 57.5512 21.8816Z" fill="#FF3D00"/>
<path d="M48.2861 15.0908C48.2105 15.4806 48.169 15.8828 48.1689 16.2881C48.1689 17.7127 48.5435 19.0006 49.1875 20.0908H10.6396C9.25894 20.0908 8.13965 18.9715 8.13965 17.5908C8.13965 16.2101 9.25894 15.0908 10.6396 15.0908H48.2861Z" fill="#FF3D00"/>
<path fill-rule="evenodd" clip-rule="evenodd" d="M32.3774 41.696C35.6837 41.696 38.2126 39.2339 38.2126 36.1024C38.2126 34.2496 37.3928 33.3525 35.948 31.8196C34.7595 30.5587 33.2855 28.9754 32.6706 26.3393C32.3342 26.6244 32.0056 26.9791 31.7415 27.3948C31.1731 28.2897 30.9099 29.4311 31.6081 30.9182C32.1609 32.0954 32.3897 33.7567 31.2835 34.9348C30.6245 35.6365 29.4974 36.1303 28.2741 35.5846C27.7246 35.3394 27.2699 34.9305 26.8913 34.4185C26.6798 34.8904 26.5438 35.4664 26.5438 36.1025C26.5437 39.2469 29.0692 41.696 32.3774 41.696ZM34.1475 24.2936C34.1286 23.9509 33.8669 23.675 33.5552 23.7624C31.5605 24.3221 28.0174 27.4398 30.0421 31.7521C30.444 32.6079 30.3742 33.2663 30.0455 33.6164C29.5069 34.1899 28.4713 34.2342 27.6248 32.0301C27.5003 31.7061 27.1581 31.5241 26.8757 31.7033C25.5899 32.5193 24.793 34.282 24.793 36.1024C24.7929 40.4679 28.2922 43.5605 32.3774 43.5605C36.4627 43.5605 39.9634 40.4529 39.9634 36.1024C39.9634 33.4458 38.6477 32.051 37.2661 30.5862C35.8297 29.0631 34.3218 27.4645 34.1475 24.2936Z" fill="#FF3D00"/>
<path d="M32.3774 41.696C35.6837 41.696 38.2126 39.2339 38.2126 36.1024C38.2126 34.2496 37.3928 33.3525 35.948 31.8196C34.7595 30.5587 33.2855 28.9754 32.6706 26.3393C32.3342 26.6244 32.0056 26.9791 31.7415 27.3948C31.1731 28.2897 30.9099 29.4311 31.6081 30.9182C32.1609 32.0954 32.3897 33.7567 31.2835 34.9348C30.6245 35.6365 29.4974 36.1303 28.2741 35.5846C27.7246 35.3394 27.2699 34.9305 26.8913 34.4185C26.6798 34.8904 26.5438 35.4664 26.5438 36.1025C26.5437 39.2469 29.0692 41.696 32.3774 41.696Z" fill="#FF3D00"/>
<path d="M23.1123 34.9053C23.0367 35.295 22.9951 35.6972 22.9951 36.1025C22.9951 37.5271 23.3696 38.815 24.0137 39.9053H10.6396C9.25901 39.9052 8.13965 38.7859 8.13965 37.4053C8.13965 36.0246 9.25901 34.9054 10.6396 34.9053H23.1123Z" fill="#FF3D00"/>
<path fill-rule="evenodd" clip-rule="evenodd" d="M49.2016 61.5105C52.5079 61.5105 55.0368 59.0484 55.0368 55.9169C55.0368 54.0641 54.217 53.167 52.7722 51.6341C51.5838 50.3731 50.1097 48.7898 49.4948 46.1537C49.1584 46.4389 48.8299 46.7935 48.5657 47.2092C47.9973 48.1041 47.7341 49.2455 48.4323 50.7326C48.9851 51.9098 49.2139 53.5712 48.1077 54.7493C47.4488 55.451 46.3216 55.9448 45.0983 55.3991C44.5488 55.1539 44.0941 54.7449 43.7155 54.233C43.504 54.7048 43.368 55.2809 43.368 55.9169C43.3679 59.0614 45.8934 61.5105 49.2016 61.5105ZM50.9717 44.108C50.9528 43.7653 50.6911 43.4894 50.3795 43.5769C48.3847 44.1366 44.8416 47.2542 46.8663 51.5665C47.2682 52.4224 47.1984 53.0808 46.8697 53.4308C46.3311 54.0044 45.2955 54.0486 44.449 51.8445C44.3245 51.5206 43.9823 51.3386 43.6999 51.5177C42.4141 52.3337 41.6172 54.0964 41.6172 55.9169C41.6171 60.2824 45.1164 63.375 49.2016 63.375C53.2869 63.375 56.7876 60.2674 56.7876 55.9169C56.7876 53.2603 55.4719 51.8654 54.0904 50.4006C52.6539 48.8776 51.146 47.279 50.9717 44.108Z" fill="#FF3D00"/>
<path d="M49.2016 61.5105C52.5079 61.5105 55.0368 59.0484 55.0368 55.9169C55.0368 54.0641 54.217 53.167 52.7722 51.6341C51.5838 50.3731 50.1097 48.7898 49.4948 46.1537C49.1584 46.4389 48.8299 46.7935 48.5657 47.2092C47.9973 48.1041 47.7341 49.2455 48.4323 50.7326C48.9851 51.9098 49.2139 53.5712 48.1077 54.7493C47.4488 55.451 46.3216 55.9448 45.0983 55.3991C44.5488 55.1539 44.0941 54.7449 43.7155 54.233C43.504 54.7048 43.368 55.2809 43.368 55.9169C43.3679 59.0614 45.8934 61.5105 49.2016 61.5105Z" fill="#FF3D00"/>
<path d="M39.9365 54.7197C39.8609 55.1095 39.8194 55.5117 39.8193 55.917C39.8193 57.3414 40.194 58.6295 40.8379 59.7197H10.6396C9.25894 59.7197 8.13965 58.6004 8.13965 57.2197C8.13965 55.839 9.25894 54.7197 10.6396 54.7197H39.9365Z" fill="#FF3D00"/>
</svg>
