<svg width="72" height="72" viewBox="0 0 72 72" fill="none" xmlns="http://www.w3.org/2000/svg">
<path d="M28.2932 21.987L25.9942 18.005C25.3352 16.8635 23.8757 16.4725 22.7342 17.1315L20.9991 18.1333C20.7375 18.2843 20.507 18.4835 20.3198 18.7205L19.3854 19.9031C19.173 19.8275 18.9566 19.7636 18.7373 19.7117L18.7371 19.7116L18.7246 19.7087C17.2642 19.3665 15.6754 19.5577 14.2739 20.3669C11.3496 22.0552 6.59081 24.3027 5.32233 29.4895C5.16364 30.1384 4.49956 35.4649 5.16302 35.5425C6.51402 35.7005 8.41778 31.7102 8.41778 31.7102C8.41778 31.7102 10.8976 27.6533 12.7878 29.7553C14.6779 31.8573 17.8419 32.4268 20.388 30.9568C22.0504 29.9969 23.0916 28.3742 23.3704 26.6153L24.7417 26.5166C25.1016 26.4908 25.4511 26.3835 25.7636 26.2031L27.4197 25.2469C28.5611 24.5879 28.9522 23.1284 28.2932 21.987Z" fill="#FF3D00"/>
<path d="M35.2555 51.2002C35.8078 52.1568 35.48 53.38 34.5234 53.9323L32.9445 54.8439C31.9879 55.3962 30.7647 55.0684 30.2124 54.1118L18.333 33.5361C19.302 33.4348 20.2663 33.1349 21.1645 32.6163C22.0625 32.0978 22.8039 31.4128 23.3761 30.6245L35.2555 51.2002Z" fill="#FF3D00"/>
<path d="M66.3513 38.3699C66.8892 38.9078 66.8885 39.7799 66.3506 40.3178L56.4283 50.2401C55.8904 50.7778 55.0189 50.7779 54.481 50.2401C53.9432 49.7023 53.9427 48.8301 54.4803 48.2921L64.4026 38.3699C64.9405 37.8319 65.8134 37.8319 66.3513 38.3699Z" fill="#FF3D00"/>
<path d="M56.5895 51.6969C56.5016 52.7551 55.9002 53.765 54.8486 54.3064L53.2107 55.1489C52.5729 55.4771 52.0207 55.9512 51.5997 56.532L46.4807 63.5927C45.1078 65.4862 42.3674 65.7035 40.7134 64.0498C39.0452 62.3817 39.2822 59.6126 41.2099 58.2528L48.2651 53.2775C48.8822 52.8421 49.3783 52.2564 49.7076 51.5767L50.4603 50.023C50.9714 48.9683 51.9506 48.3458 52.9925 48.2228C52.7158 49.181 52.9543 50.2562 53.7092 51.0112C54.4887 51.7906 55.6086 52.0169 56.5895 51.6969Z" fill="#FF3D00"/>
<path d="M65.019 40.7394C64.4374 40.7613 63.96 40.2839 63.9819 39.7023L64.0579 37.692C64.0702 37.3648 64.2419 37.0644 64.5176 36.8878L67.0946 35.2363C67.4902 34.9828 68.009 35.0389 68.3413 35.3711L69.3502 36.38C69.6824 36.7123 69.7385 37.231 69.485 37.6267L67.8335 40.2037C67.6569 40.4793 67.3565 40.6511 67.0293 40.6634L65.019 40.7394Z" fill="#FF3D00"/>
<path d="M50.9357 6.91187C51.4992 7.05317 52.0285 7.26114 52.5172 7.52527C52.7321 7.64147 52.6742 7.98139 52.4645 8.10694V8.10694L48.1092 10.716C47.2443 11.2344 46.9631 12.3557 47.4812 13.2208L48.8823 15.5597C49.4006 16.4246 50.522 16.7057 51.3871 16.1877L55.7424 13.5786V13.5786C55.8777 13.4976 56.0706 13.5813 56.065 13.739C56.0484 14.2038 55.9844 14.6739 55.8667 15.1432C54.9554 18.7779 51.2701 20.9856 47.6354 20.0743C44.0007 19.1629 41.793 15.4776 42.7043 11.8429C43.6157 8.20822 47.301 6.00051 50.9357 6.91187Z" fill="#FF3D00"/>
<path d="M47.2235 42.372C46.5486 45.0633 43.8193 46.6984 41.128 46.0236C38.4369 45.3486 36.8028 42.6195 37.4774 39.9283L44.4689 20.585C45.2885 21.1169 46.2067 21.5272 47.2073 21.7781C48.2508 22.0397 49.2973 22.108 50.3099 22.0083L47.2235 42.372ZM42.878 39.0444C41.6678 38.7412 40.4408 39.4767 40.1374 40.6869C39.8343 41.8969 40.5691 43.1236 41.779 43.4272C42.9892 43.7307 44.2166 42.9959 44.5203 41.7859C44.8238 40.5756 44.0883 39.3478 42.878 39.0444Z" fill="#FF3D00"/>
</svg>
