<svg width="72" height="72" viewBox="0 0 72 72" fill="none" xmlns="http://www.w3.org/2000/svg">
<path d="M35.5806 15.4043L31.8562 11.6011C30.7886 10.5109 29.0394 10.4926 27.9493 11.5601L26.292 13.183C26.0422 13.4277 25.8411 13.7175 25.6994 14.0371L24.9921 15.6322C24.7322 15.6085 24.4712 15.5992 24.2103 15.6041L24.2089 15.6042L24.1951 15.6045C22.459 15.6412 20.7326 16.313 19.394 17.6239C16.601 20.359 11.9119 24.2493 11.9829 30.4306C11.9917 31.2038 12.7806 37.3677 13.5469 37.2637C15.1073 37.052 16.0932 32.0294 16.0932 32.0294C16.0932 32.0294 17.7059 26.7664 20.4306 28.5793C23.1552 30.3921 26.867 30.1197 29.2988 27.7383C30.8866 26.1834 31.5869 24.064 31.3931 22.0114L32.9023 21.506C33.2985 21.3733 33.6595 21.1525 33.958 20.8602L35.5397 19.3112C36.6299 18.2437 36.6482 16.4945 35.5806 15.4043Z" fill="#FF3D00"/>
<path d="M52.8055 49.5059L52.6752 49.6335L51.1665 51.1109L50.9156 51.3566C50.1365 52.1196 48.8898 52.1178 48.1128 51.3526L46.8477 50.1064L51.773 45.7187L52.5472 46.2482C52.6551 46.322 52.7577 46.4046 52.8411 46.5054C53.0839 46.7989 53.243 47.1379 53.3188 47.4909C53.529 48.18 53.3603 48.9625 52.8055 49.5059Z" fill="#FF3D00"/>
<path d="M37.8477 31.1836L33.7783 36.7197L28.1436 30.9297C29.2089 30.5375 30.2115 29.9209 31.0752 29.0752C31.9309 28.2371 32.5639 27.258 32.9785 26.2119L37.8477 31.1836Z" fill="#FF3D00"/>
<path d="M40.7215 33.8217L34.7627 41.2643C34.4383 41.6694 33.858 41.759 33.4265 41.4707L30.5286 39.5345L30.2501 39.3085C30.0318 39.1313 29.7084 39.1803 29.5525 39.4142C29.5002 39.4926 29.4723 39.5847 29.4723 39.679V45.2019C29.4723 45.4948 29.3439 45.7729 29.1211 45.9629L20.0709 53.6784C19.5929 54.0859 19.6045 54.828 20.095 55.2203L29.7084 62.9099C30.1548 63.2669 30.809 63.1778 31.1437 62.7146L37.042 54.5508C37.0837 54.4931 37.1314 54.4401 37.1843 54.3925L49.8141 43.0483C50.1287 42.7657 50.2315 42.3159 50.071 41.9247L48.8 38.8272C48.7447 38.6925 48.6607 38.5715 48.5538 38.4727L45.0895 35.2689C45.027 35.2111 44.9574 35.1615 44.8823 35.1213L41.9739 33.565C41.5491 33.3377 41.0226 33.4456 40.7215 33.8217Z" fill="#FF3D00" stroke="#FF3D00" stroke-width="3" stroke-linecap="round"/>
<path d="M49.561 8.80454C49.9613 8.30995 50.7155 8.30995 51.1157 8.80454L57.4601 16.6445C57.9892 17.2984 57.5238 18.2736 56.6827 18.2736H43.9941C43.153 18.2736 42.6876 17.2984 43.2167 16.6445L49.561 8.80454Z" fill="#FF3D00"/>
<path d="M47.4922 16.508C47.4922 15.9557 47.9399 15.508 48.4922 15.508H52.1856C52.7378 15.508 53.1856 15.9557 53.1856 16.508V21.4064C53.1856 21.9587 52.7378 22.4064 52.1856 22.4064H48.4922C47.9399 22.4064 47.4922 21.9587 47.4922 21.4064V16.508Z" fill="#FF3D00"/>
<path d="M58.5586 25.3532C58.8165 25.0346 59.3023 25.0346 59.5602 25.3532L63.647 30.4036C63.9879 30.8248 63.6881 31.453 63.1463 31.453H54.9725C54.4307 31.453 54.1309 30.8248 54.4718 30.4036L58.5586 25.3532Z" fill="#FF3D00"/>
<path d="M57.226 30.3156C57.226 29.9598 57.5144 29.6714 57.8701 29.6714H60.2493C60.6051 29.6714 60.8935 29.9598 60.8935 30.3156V33.4711C60.8935 33.8268 60.6051 34.1152 60.2493 34.1152H57.8701C57.5144 34.1152 57.226 33.8268 57.226 33.4711V30.3156Z" fill="#FF3D00"/>
<path d="M61.9253 37.9118C62.0999 37.6961 62.4289 37.6961 62.6035 37.9118L65.3712 41.3321C65.6021 41.6173 65.3991 42.0427 65.0321 42.0427H59.4966C59.1297 42.0427 58.9267 41.6173 59.1575 41.3321L61.9253 37.9118Z" fill="#FF3D00"/>
<path d="M61.0227 41.2725C61.0227 41.0315 61.218 40.8362 61.459 40.8362H63.0702C63.3112 40.8362 63.5065 41.0315 63.5065 41.2725V43.4094C63.5065 43.6504 63.3112 43.8457 63.0702 43.8457H61.459C61.218 43.8457 61.0227 43.6504 61.0227 43.4094V41.2725Z" fill="#FF3D00"/>
</svg>
